# xmcd
#
# Track frame offsets:
#	150
#	29835
#	80568
#	116615
#	155739
#	186672
#	232771
#	270734
#	293975
#
# Disc length: 4491 seconds
#
# Revision: 0
# Processed by: cddbd v1.5.2PL0 Copyright (c) Steve Scherf et al.
# Submitted via: audiograbber 1.83.01
#
DISCID=84118909
DTITLE=Grateful Dead - 93-06-18 Soldier Field, Chicago IL
DYEAR=1900
DGENRE=
TTITLE0=Hell In A Bucket
TTITLE1=Sugaree
TTITLE2=Walkin' Blues
TTITLE3=Stagger Lee
TTITLE4=Queen Jane Approximately
TTITLE5=Row Jimmy
TTITLE6=The Music Never Stopped
TTITLE7=Box Of Rain
TTITLE8=Iko Iko
EXTD=
EXTT0=
EXTT1=
EXTT2=
EXTT3=
EXTT4=
EXTT5=
EXTT6=
EXTT7=
EXTT8=
PLAYORDER=
